<mxfile host="app.diagrams.net" modified="2023-05-10T00:32:01.731Z" agent="Mozilla/5.0 (Windows NT 10.0; Win64; x64) AppleWebKit/537.36 (KHTML, like Gecko) Chrome/112.0.0.0 Safari/537.36" etag="pV3rOv6MaU6UOUR1LQiv" version="21.2.9" type="github">
  <diagram name="Page-1" id="T0raoRk0z1i-KDW7D1mD">
    <mxGraphModel dx="2412" dy="989" grid="1" gridSize="10" guides="1" tooltips="1" connect="1" arrows="1" fold="1" page="1" pageScale="1" pageWidth="850" pageHeight="1100" math="0" shadow="0">
      <root>
        <mxCell id="0" />
        <mxCell id="1" parent="0" />
        <mxCell id="GNX_AIUt09g73VEiJ1xB-1" value="" style="endArrow=none;html=1;rounded=0;" edge="1" parent="1">
          <mxGeometry width="50" height="50" relative="1" as="geometry">
            <mxPoint x="430" y="1080" as="sourcePoint" />
            <mxPoint x="425.1442307692307" y="70" as="targetPoint" />
          </mxGeometry>
        </mxCell>
        <mxCell id="GNX_AIUt09g73VEiJ1xB-9" value="" style="edgeStyle=orthogonalEdgeStyle;rounded=0;orthogonalLoop=1;jettySize=auto;html=1;exitX=0.327;exitY=0.99;exitDx=0;exitDy=0;exitPerimeter=0;" edge="1" parent="1" source="GNX_AIUt09g73VEiJ1xB-3" target="GNX_AIUt09g73VEiJ1xB-5">
          <mxGeometry relative="1" as="geometry">
            <Array as="points">
              <mxPoint x="198" y="99" />
              <mxPoint x="198" y="140" />
              <mxPoint x="140" y="140" />
            </Array>
          </mxGeometry>
        </mxCell>
        <mxCell id="GNX_AIUt09g73VEiJ1xB-3" value="User Input for cube edge" style="rounded=1;whiteSpace=wrap;html=1;" vertex="1" parent="1">
          <mxGeometry x="160" y="40" width="120" height="60" as="geometry" />
        </mxCell>
        <mxCell id="GNX_AIUt09g73VEiJ1xB-8" value="" style="edgeStyle=orthogonalEdgeStyle;rounded=0;orthogonalLoop=1;jettySize=auto;html=1;exitX=0.75;exitY=1;exitDx=0;exitDy=0;" edge="1" parent="1" source="GNX_AIUt09g73VEiJ1xB-3" target="GNX_AIUt09g73VEiJ1xB-6">
          <mxGeometry relative="1" as="geometry" />
        </mxCell>
        <mxCell id="GNX_AIUt09g73VEiJ1xB-10" value="" style="edgeStyle=orthogonalEdgeStyle;rounded=0;orthogonalLoop=1;jettySize=auto;html=1;" edge="1" parent="1" source="GNX_AIUt09g73VEiJ1xB-5" target="GNX_AIUt09g73VEiJ1xB-7">
          <mxGeometry relative="1" as="geometry" />
        </mxCell>
        <mxCell id="GNX_AIUt09g73VEiJ1xB-13" value="" style="edgeStyle=orthogonalEdgeStyle;rounded=0;orthogonalLoop=1;jettySize=auto;html=1;" edge="1" parent="1" source="GNX_AIUt09g73VEiJ1xB-5" target="GNX_AIUt09g73VEiJ1xB-12">
          <mxGeometry relative="1" as="geometry" />
        </mxCell>
        <mxCell id="GNX_AIUt09g73VEiJ1xB-5" value="User Input ^2 =&lt;br&gt;Surface Area of One Side" style="rounded=1;whiteSpace=wrap;html=1;" vertex="1" parent="1">
          <mxGeometry x="80" y="180" width="120" height="60" as="geometry" />
        </mxCell>
        <mxCell id="GNX_AIUt09g73VEiJ1xB-16" value="" style="edgeStyle=orthogonalEdgeStyle;rounded=0;orthogonalLoop=1;jettySize=auto;html=1;" edge="1" parent="1" source="GNX_AIUt09g73VEiJ1xB-6" target="GNX_AIUt09g73VEiJ1xB-11">
          <mxGeometry relative="1" as="geometry" />
        </mxCell>
        <mxCell id="GNX_AIUt09g73VEiJ1xB-6" value="Surface Area of One Side ^3 = Volume of Cube" style="rounded=1;whiteSpace=wrap;html=1;" vertex="1" parent="1">
          <mxGeometry x="260" y="180" width="120" height="60" as="geometry" />
        </mxCell>
        <mxCell id="GNX_AIUt09g73VEiJ1xB-15" value="" style="edgeStyle=orthogonalEdgeStyle;rounded=0;orthogonalLoop=1;jettySize=auto;html=1;" edge="1" parent="1" source="GNX_AIUt09g73VEiJ1xB-7" target="GNX_AIUt09g73VEiJ1xB-14">
          <mxGeometry relative="1" as="geometry" />
        </mxCell>
        <mxCell id="GNX_AIUt09g73VEiJ1xB-7" value="Suface Area of One Side * 6 = Entire Cube Surface Area" style="rounded=1;whiteSpace=wrap;html=1;" vertex="1" parent="1">
          <mxGeometry x="80" y="300" width="120" height="60" as="geometry" />
        </mxCell>
        <mxCell id="GNX_AIUt09g73VEiJ1xB-11" value="Output Sum of Volume of Cube" style="rounded=1;whiteSpace=wrap;html=1;" vertex="1" parent="1">
          <mxGeometry x="260" y="300" width="120" height="60" as="geometry" />
        </mxCell>
        <mxCell id="GNX_AIUt09g73VEiJ1xB-12" value="Output Sum of Surface Area of One Side" style="whiteSpace=wrap;html=1;rounded=1;" vertex="1" parent="1">
          <mxGeometry x="-120" y="180" width="120" height="60" as="geometry" />
        </mxCell>
        <mxCell id="GNX_AIUt09g73VEiJ1xB-14" value="Output Sum of Surface Area of One Side" style="whiteSpace=wrap;html=1;rounded=1;" vertex="1" parent="1">
          <mxGeometry x="-120" y="300" width="120" height="60" as="geometry" />
        </mxCell>
        <mxCell id="GNX_AIUt09g73VEiJ1xB-17" value="Start&lt;br&gt;&lt;span style=&quot;white-space: pre;&quot;&gt;	&lt;/span&gt;input Sidelength&lt;br&gt;Answer = Sidelength ^2&lt;br&gt;Output SurfaceAreaSide&lt;br&gt;EntireSurfaceArea = SurfaceAreaSide * 6&lt;br&gt;Output EntireSurfaceArea&lt;br&gt;&lt;div style=&quot;text-align: left;&quot;&gt;Volume = Sidelength ^3&lt;/div&gt;&lt;div style=&quot;text-align: left;&quot;&gt;Output Volume&lt;/div&gt;" style="text;html=1;strokeColor=none;fillColor=none;align=center;verticalAlign=middle;whiteSpace=wrap;rounded=0;" vertex="1" parent="1">
          <mxGeometry x="530" y="80" width="200" height="170" as="geometry" />
        </mxCell>
      </root>
    </mxGraphModel>
  </diagram>
</mxfile>
